<svg width="568" height="187" viewBox="0 0 568 187" fill="none" xmlns="http://www.w3.org/2000/svg">
<path fill-rule="evenodd" clip-rule="evenodd" d="M541.788 0.704682C541.075 1.42073 541.336 4.29499 542.628 9.95407C543.659 14.4693 544.793 23.3611 545.148 29.7132C545.854 42.37 546.667 45.7815 548.978 45.7815C550.832 45.7815 550.997 40.3957 549.438 30.7466C548.505 24.973 548.583 24.1043 550.137 22.9635C552.942 20.9027 557.343 21.4269 560.048 24.1445C562.314 26.4192 562.503 27.3521 562.503 36.2691C562.503 44.7703 562.704 45.89 564.181 45.6038C567.966 44.8717 568.157 32.3976 564.511 24.0229C562.035 18.3347 558.675 16.264 552.972 16.9097C548.755 17.3867 548.447 17.2562 547.946 14.7777C546.881 9.52031 544.142 0.483794 543.49 0.0790713C543.123 -0.148899 542.357 0.13325 541.788 0.704682ZM528.301 12.3252L528.004 19.1683L524.694 19.4876C520.429 19.8984 520.7 22.7345 525.127 24.0099C528.221 24.9007 528.238 24.9439 528.749 33.1739C529.249 41.2171 530.609 45.7815 532.505 45.7815C533.017 45.7815 533.564 40.9229 533.72 34.9856L534.004 24.1897L537.815 23.8744C540.757 23.6303 541.552 23.1734 541.306 21.8658C541.088 20.7089 539.801 20.0741 537.246 19.8612C533.681 19.564 533.498 19.3742 533.386 15.8441C533.19 9.71808 532.093 6.1569 530.293 5.80942C528.856 5.53123 528.553 6.52153 528.301 12.3252ZM430.628 18.0315L426.25 19.105L426.819 26.1671C427.375 33.0815 429.548 41.7916 431.461 44.7693C432.229 45.9653 432.674 46.0146 433.67 45.0143C434.617 44.0633 434.659 42.8581 433.846 40.0019C433.257 37.9331 432.194 34.1802 431.484 31.6625C428.932 22.609 432.102 19.3229 441.175 21.6167C446.809 23.0417 448.67 21.8447 445.605 18.7666C443.26 16.4116 438.238 16.1645 430.628 18.0315ZM480.984 21.0724C477.839 28.6315 480.091 39.9015 485.523 43.786C489.394 46.5538 493.712 46.3209 497.475 43.1413L500.6 40.5001L503.002 42.7677C504.819 44.481 506.523 45.0113 509.992 44.942C515.652 44.8275 516.34 44.4128 518.172 40.008C519.906 35.8423 519.256 30.4825 516.459 25.8628C514.397 22.4573 510.693 21.2672 512.032 24.4407C515.62 32.9429 515.932 37.1257 513.119 38.9876C511.232 40.236 505.814 39.8343 504.592 38.356C503.956 37.5857 503.168 34.6954 502.842 31.9316C502.517 29.1689 501.907 26.3519 501.489 25.671C500.064 23.3561 498.504 25.8015 498.504 30.3519C498.504 36.0853 494.225 41.0916 489.765 40.5764C485.29 40.0602 483.242 34.9093 483.977 26.0275C484.661 17.7714 483.297 15.5127 480.984 21.0724ZM410.815 20.753C407.584 22.8309 402.506 31.5269 402.506 34.9816C402.506 38.3238 405.346 42.4584 408.561 43.7961C411.11 44.8566 412.374 44.8656 415.183 43.8453C417.093 43.1514 418.887 42.8169 419.171 43.1011C420.339 44.2741 421.723 58.9044 421.076 63.2388C420.692 65.8098 419.383 69.0746 418.168 70.4926C416.285 72.691 415.431 72.9744 412.397 72.4019C410.438 72.0334 406.4 70.5098 403.424 69.0164C399.071 66.8321 397.914 65.7214 397.502 63.3342C396.932 60.0292 394.115 58.807 393.113 61.4312C392.758 62.3601 393.265 64.7503 394.238 66.7428C397.679 73.7918 414.087 79.3946 419.964 75.5282C424.665 72.434 425.764 65.4091 424.649 45.5707C424.113 36.0201 423.155 26.852 422.52 25.196C419.944 18.4723 416.433 17.1386 410.815 20.753ZM456.109 20.9418C443.689 28.0932 447.675 45.7815 461.706 45.7815C475.848 45.7815 481.995 32.014 472.326 21.9953C469.606 19.1773 468.413 18.6692 464.559 18.6822C461.701 18.6933 458.554 19.5348 456.109 20.9418ZM418.689 27.0589C419.187 35.6474 417.095 39.7559 412.224 39.7559C409.839 39.7559 406.506 37.0434 406.506 35.1011C406.506 31.5299 409.847 25.7804 412.741 24.3734C416.772 22.4131 418.464 23.1763 418.689 27.0589ZM469.696 25.8537C473.144 28.2921 473.966 30.9846 472.317 34.4362C470.861 37.4842 464.203 41.7223 460.832 41.7484C457.932 41.7695 452.857 37.3678 452.278 34.3279C451.89 32.2892 453.732 25.7302 454.707 25.681C454.871 25.673 456.805 25.0181 459.005 24.2268C463.401 22.645 465.641 22.9865 469.696 25.8537Z" fill="#0099FF"/>
<path d="M542.628 9.95407C541.336 4.29499 541.075 1.42073 541.788 0.704682C542.357 0.13325 543.123 -0.148899 543.49 0.0790713C544.142 0.483794 546.881 9.52031 547.946 14.7777C548.447 17.2562 548.755 17.3867 552.972 16.9097C558.675 16.264 562.035 18.3347 564.511 24.0229C568.157 32.3976 567.966 44.8717 564.181 45.6038C562.704 45.89 562.503 44.7703 562.503 36.2691C562.503 27.3521 562.314 26.4192 560.048 24.1445C557.343 21.4269 552.942 20.9027 550.137 22.9635C548.583 24.1043 548.505 24.973 549.438 30.7466C550.997 40.3957 550.832 45.7815 548.978 45.7815C546.667 45.7815 545.854 42.37 545.148 29.7132C544.793 23.3611 543.659 14.4693 542.628 9.95407Z" fill="#0099FF"/>
<path d="M528.004 19.1683L528.301 12.3252C528.553 6.52153 528.856 5.53123 530.293 5.80942C532.093 6.1569 533.19 9.71808 533.386 15.8441C533.498 19.3742 533.681 19.564 537.246 19.8612C539.801 20.0741 541.088 20.7089 541.306 21.8658C541.552 23.1734 540.757 23.6303 537.815 23.8744L534.004 24.1897L533.72 34.9856C533.564 40.9229 533.017 45.7815 532.505 45.7815C530.609 45.7815 529.249 41.2171 528.749 33.1739C528.238 24.9439 528.221 24.9007 525.127 24.0099C520.7 22.7345 520.429 19.8984 524.694 19.4876L528.004 19.1683Z" fill="#0099FF"/>
<path d="M426.25 19.105L430.628 18.0315C438.238 16.1645 443.26 16.4116 445.605 18.7666C448.67 21.8447 446.809 23.0417 441.175 21.6167C432.102 19.3229 428.932 22.609 431.484 31.6625C432.194 34.1802 433.257 37.9331 433.846 40.0019C434.659 42.8581 434.617 44.0633 433.67 45.0143C432.674 46.0146 432.229 45.9653 431.461 44.7693C429.548 41.7916 427.375 33.0815 426.819 26.1671L426.25 19.105Z" fill="#0099FF"/>
<path d="M485.523 43.786C480.091 39.9015 477.839 28.6315 480.984 21.0724C483.297 15.5127 484.661 17.7714 483.977 26.0275C483.242 34.9093 485.29 40.0602 489.765 40.5764C494.225 41.0916 498.504 36.0853 498.504 30.3519C498.504 25.8015 500.064 23.3561 501.489 25.671C501.907 26.3519 502.517 29.1689 502.842 31.9316C503.168 34.6954 503.956 37.5857 504.592 38.356C505.814 39.8343 511.232 40.236 513.119 38.9876C515.932 37.1257 515.62 32.9429 512.032 24.4407C510.693 21.2672 514.397 22.4573 516.459 25.8628C519.256 30.4825 519.906 35.8423 518.172 40.008C516.34 44.4128 515.652 44.8275 509.992 44.942C506.523 45.0113 504.819 44.481 503.002 42.7677L500.6 40.5001L497.475 43.1413C493.712 46.3209 489.394 46.5538 485.523 43.786Z" fill="#0099FF"/>
<path fill-rule="evenodd" clip-rule="evenodd" d="M313.536 0.937011C313.219 1.4522 313.83 5.85791 314.894 10.7286C315.958 15.5984 317.106 23.6507 317.444 28.6218C318.521 44.4602 318.88 46.1966 321.086 46.1966C323.998 46.1966 324.3 44.2463 322.975 34.0037C321.855 25.3499 321.898 24.646 323.634 23.3535C326.072 21.5377 330.988 22.4938 333.243 25.2214C334.634 26.9035 334.993 29.2596 334.993 36.7083C334.993 46.4477 336.098 49.1543 338.645 45.6564C340.506 43.0995 340.366 31.5854 338.404 25.8018C337.509 23.1636 335.45 19.964 333.691 18.4787C330.974 16.1819 329.947 15.9127 325.781 16.4088C321.31 16.9401 320.993 16.8277 320.993 14.7097C320.993 10.8783 316.901 0 315.461 0C314.719 0 313.853 0.421818 313.536 0.937011ZM16.4997 5.41107C12.2478 7.34329 6.41785 13.5678 3.7919 18.9808C-0.788006 28.418 2.33693 42.753 9.64078 45.8181C12.5507 47.0393 13.9557 47.0181 20.2476 45.6553C29.4274 43.6669 31.9993 42.5943 31.9993 40.7535C31.9993 38.3633 30.8864 38.2619 22.2305 39.8637C12.3947 41.6845 9.5558 41.1511 7.46484 37.0898C2.83794 28.1046 5.58889 18.2999 14.4197 12.3024C20.6126 8.09647 22.3785 8.03423 21.4995 12.0513C21.0916 13.9153 21.2436 15.0641 21.8965 15.0641C23.7295 15.0641 26.1584 10.2888 25.8224 7.34625C25.5555 5.01232 24.9765 4.47809 22.4995 4.28326C20.8496 4.15371 18.1496 4.66088 16.4997 5.41107ZM301.488 6.27673C301.244 6.96767 300.921 10.2436 300.769 13.5577C300.495 19.5563 300.479 19.5844 297.244 19.8977C291.773 20.428 293.294 25.1069 298.937 25.1069C300.47 25.1069 300.786 26.3311 301.219 33.9556C301.743 43.1869 303.049 47.2009 305.529 47.2009C306.727 47.2009 306.994 45.1863 306.994 36.1539V25.1069L309.744 25.0918C316.017 25.0566 316.742 20.6941 310.666 19.5492C307.298 18.9145 307.219 18.785 306.536 12.7272C305.904 7.11334 304.893 5.07962 302.713 5.03644C302.283 5.0284 301.732 5.5868 301.488 6.27673ZM179.792 12.8045C179.499 19.5171 179.467 19.5864 176.496 19.9118C172.281 20.3728 171.044 21.8932 173.437 23.6678C174.505 24.4592 176.355 25.1069 177.548 25.1069C179.573 25.1069 179.752 25.7004 180.221 33.9556C180.734 42.994 182.204 47.6478 184.314 46.9097C185.15 46.6164 185.407 43.3656 185.192 35.8015L184.889 25.1069H187.361C191.112 25.1069 192.996 24.0845 192.996 22.0468C192.996 20.6448 192.102 20.1327 189.246 19.8947C185.56 19.5883 185.492 19.5071 185.232 15.0641C184.814 7.89464 184.15 6.02563 182.023 6.02563C180.329 6.02563 180.05 6.87326 179.792 12.8045ZM224.791 12.8045L224.495 19.5834L221.245 19.8977C216.604 20.3476 216.682 23.7642 221.352 24.6439L224.71 25.2766L225.283 34.1664C225.873 43.3114 227.24 47.6337 229.313 46.9106C230.14 46.6214 230.436 43.2843 230.299 35.8024L230.102 25.1069H232.614C236.181 25.1069 239.03 23.3534 238.351 21.5768C238.037 20.7564 236.741 20.0855 235.47 20.0855C230.858 20.0855 229.995 19.1325 229.995 14.0348C229.995 7.93784 229.264 6.02563 226.934 6.02563C225.349 6.02563 225.044 6.98875 224.791 12.8045ZM161.47 8.07843C160.676 9.36892 162.762 12.0513 164.56 12.0513C166.563 12.0513 167.317 10.1341 165.961 8.49213C164.548 6.78285 162.39 6.58407 161.47 8.07843ZM349.891 14.331C345.281 17.4232 342.996 22.3582 342.995 29.2264C342.993 35.6598 345.41 40.1881 350.79 43.8286C357.227 48.1851 366.943 47.7292 372.646 42.8032L375.332 40.4833L367.294 40.9503C357.972 41.4926 352.932 40.1801 350.009 36.4482C347.396 33.112 347.466 32.3146 350.324 32.8629C353.98 33.5649 360.47 31.3836 363.359 28.4822C365.367 26.4657 365.985 24.8558 365.961 21.7064C365.927 17.2384 364.726 15.0471 361.309 13.2193C357.926 11.4106 353.619 11.8293 349.891 14.331ZM164.997 26.4897C164.997 41.9355 167.944 50.9218 171.078 45.0388C171.917 43.4641 171.802 40.6962 170.611 33.7778C169.743 28.7323 168.913 23.027 168.765 21.0978C168.581 18.6905 167.949 17.4865 166.747 17.2585C165.18 16.9602 164.997 17.9233 164.997 26.4897ZM360.629 19.6516C362.253 22.1402 362.223 22.32 359.77 24.7825C358.044 26.5158 355.746 27.5031 352.611 27.8586C348.19 28.3587 347.993 28.2713 347.993 25.8169C347.993 24.4059 349.158 21.8621 350.582 20.1628C353.927 16.1698 358.216 15.9519 360.629 19.6516ZM92.0631 21.6411L86.9032 25.2053L83.7713 22.559C81.0694 20.2753 80.0124 19.9912 76.0695 20.4863C73.5555 20.8026 70.2336 21.0576 68.6866 21.0546L65.8747 21.0486L66.4946 30.8604C67.3216 43.9641 67.6266 45.1923 70.0566 45.1923C71.9365 45.1923 72.0565 44.6451 71.7875 37.2667C71.5455 30.6224 71.8065 28.9984 73.4035 27.2239C77.7584 22.3843 82.7723 25.6803 85.4083 35.1135C87.0802 41.0999 89.0972 43.8616 90.9541 42.7087C92.3201 41.8611 92.2741 39.5744 90.8102 35.5081C89.8542 32.8518 89.8962 31.6949 91.0251 29.5759C92.6661 26.4968 96.812 24.1026 100.505 24.1026C104.297 24.1026 107.224 31.0773 106.825 39.1637C106.497 45.7949 107.801 48.3548 110.09 45.58C112.304 42.8955 111.845 31.5915 109.293 25.9314C107.154 21.1902 103.138 18.077 99.1599 18.077C98.094 18.077 94.9011 19.6808 92.0631 21.6411ZM142.872 19.8395C141.429 20.8036 139.074 22.4295 137.64 23.4539C135.055 25.2987 135.004 25.2907 131.835 22.6133C129.074 20.2804 128.015 19.9871 124.068 20.4661C121.555 20.7704 118.373 21.1491 116.998 21.3057L114.498 21.5919L114.822 31.6346C115.211 43.7171 115.564 45.1923 118.065 45.1923C119.821 45.1923 119.998 44.4251 119.998 36.8117C119.998 29.9676 120.333 28.1258 121.827 26.769C126.31 22.6936 130.694 25.8541 133.509 35.1898C135.533 41.9024 137.381 44.2041 139.245 42.3322C140.13 41.4434 140.117 40.0706 139.194 36.6018C137.819 31.4378 138.466 29.4754 142.626 26.1895C149.663 20.6298 154.997 26.1824 154.997 39.0673C154.997 46.3231 155.878 48.2595 158.007 45.6825C161.668 41.2516 159.373 26.8693 154.1 21.2002C150.749 17.5979 146.924 17.135 142.872 19.8395ZM41.3701 21.5859C33.1793 26.5169 31.7913 36.0193 38.2502 42.9438C41.2492 46.1595 47.038 47.5383 51.9539 46.2087C63.7197 43.0271 67.1716 31.0642 58.8198 22.4104C56.0129 19.502 54.9679 19.0822 50.5529 19.0903C46.967 19.0973 44.3001 19.8224 41.3701 21.5859ZM246.599 21.3569C239.599 25.387 237.111 33.5408 240.951 39.8657C243.762 44.4954 247.478 46.5853 252.863 46.5662C261.583 46.5351 267.983 40.7284 267.99 32.8398C268.001 21.4001 256.887 15.4337 246.599 21.3569ZM54.0189 25.6191C60.1728 28.8157 60.3237 34.2709 54.3849 38.8203C47.389 44.1791 38.9992 41.0357 38.9992 33.0557C38.9992 25.9595 47.024 21.9866 54.0189 25.6191ZM259.718 26.084C263.752 28.5536 264.75 32.0555 262.431 35.6086C259.197 40.5657 251.894 42.8042 247.195 40.2784C244.618 38.8935 242.617 33.7868 243.409 30.6183C244.191 27.49 249.428 24.1096 253.495 24.1096C255.145 24.1096 257.945 24.9984 259.718 26.084ZM14.9997 109.171C9.8558 111.06 5.99988 119.384 5.99988 128.604C5.99988 133.037 5.82188 133.353 2.99994 133.92C0.851983 134.352 0 135.1 0 136.556C0 138.236 0.651972 138.59 3.74991 138.593C7.41083 138.595 7.59484 138.78 11.4998 146.316C15.7657 154.551 18.4146 157.198 19.9356 154.75C20.9986 153.038 20.4666 151.495 16.8067 145.674C13.0137 139.641 13.1727 138.59 17.8776 138.59C22.2415 138.59 24.8545 136.536 22.7365 134.771C22.0286 134.18 19.2206 133.555 16.4977 133.382L11.5457 133.066L10.7368 128.547C9.61181 122.257 11.2868 116.918 14.9887 114.995C18.9896 112.918 19.7416 113.048 23.6525 116.496C25.5315 118.153 27.7284 119.509 28.5344 119.509C30.9204 119.509 30.2084 116.063 27.2495 113.291C22.5275 108.868 19.0286 107.691 14.9997 109.171ZM112.498 121.892C101.192 127.086 99.5719 143.608 109.614 151.3C111.448 152.705 114.647 154.254 116.723 154.743C121.612 155.895 130.208 154.185 132.54 151.597C134.28 149.667 134.173 149.637 125.62 149.637C120.392 149.637 115.585 149.071 113.546 148.216C108.399 146.055 106.054 140.013 110.852 141.273C113.776 142.041 120.453 139.829 123.35 137.133C126.924 133.806 127.103 126.928 123.699 123.716C120.708 120.893 116.251 120.167 112.498 121.892ZM170.497 121.931C156.013 128.395 158.565 150.485 174.286 154.737C179.488 156.144 187.907 154.518 190.538 151.599C192.279 149.667 192.175 149.637 183.716 149.637C178.992 149.637 173.99 149.203 172.601 148.673C167.071 146.561 163.304 139.881 168.363 141.157C171.888 142.045 178.376 139.942 181.362 136.944C185.148 133.142 185.026 127.418 181.073 123.448C177.892 120.254 175.138 119.859 170.497 121.931ZM317.494 121.922C313.734 123.588 311.499 126.084 309.532 130.811C306.253 138.692 308.947 147.583 316.043 152.299C319.364 154.507 321.429 155.101 325.87 155.127C332.007 155.163 337.576 153.299 338.933 150.755C339.703 149.312 338.848 149.168 331.145 149.434C321.683 149.762 317.019 148.228 314.206 143.862C312.79 141.664 312.85 141.603 316.404 141.603C320.416 141.603 326.448 139.397 329.15 136.941C333.369 133.106 332.103 124.673 326.902 121.972C323.481 120.196 321.411 120.185 317.494 121.922ZM64.4987 126.073C62.2987 126.865 59.6468 127.52 58.6058 127.528C56.8658 127.542 56.7568 128.169 57.2588 135.326C57.8728 144.069 61.3467 154.658 63.6017 154.658C66.0446 154.658 66.1576 152.335 64.0447 145.563C59.8468 132.113 61.6967 128.441 71.5525 130.656C74.5545 131.33 77.2744 131.618 77.5954 131.295C78.9104 129.974 76.6974 126.505 74.1815 125.945C72.7065 125.617 70.8235 125.187 69.9986 124.991C69.1736 124.795 66.6986 125.282 64.4987 126.073ZM200.496 126.47C195.647 127.866 194.432 128.637 194.162 130.49C193.64 134.077 195.919 145.568 198.215 150.929C200.077 155.277 200.458 155.629 201.816 154.265C203.174 152.902 203.105 151.9 201.165 144.791C198.413 134.706 198.444 132.974 201.408 131.024C203.503 129.645 204.62 129.603 209.908 130.699C214.333 131.617 215.996 132.405 215.996 133.587C215.996 138.068 219.366 145.927 222.878 149.635C227.372 154.379 231.697 154.948 237.433 151.549C240.69 149.619 241.038 149.586 241.634 151.145C242.494 153.395 241.315 170.214 239.962 175.004C239.376 177.081 237.79 179.507 236.439 180.396C233.245 182.498 229.513 181.053 224.106 175.623C219.631 171.128 217.996 170.738 217.996 174.164C217.996 177.745 222.249 182.208 228.051 184.715C237.009 188.585 241.478 185.711 244.476 174.154C247.729 161.612 245.164 125.534 241.02 125.534C240.393 125.534 239.995 129.209 239.995 135.007C239.995 144.315 239.945 144.514 237.091 146.556C233.49 149.13 227.879 149.269 225.688 146.838C223.279 144.164 221.195 138.576 220.42 132.71C219.715 127.373 218.365 125.318 217.01 127.52C216.418 128.483 215.718 128.427 213.872 127.266C209.996 124.831 206.842 124.643 200.496 126.47ZM121.151 127.981C122.719 131.438 121.638 133.379 116.979 135.473C108.856 139.126 105.131 135.135 110.587 128.624C113.985 124.568 119.452 124.236 121.151 127.981ZM178.95 126.985C181.19 129.695 179.745 132.94 175.296 135.196C167.113 139.347 162.987 135.307 168.586 128.624C171.457 125.196 176.776 124.355 178.95 126.985ZM287.494 127.27C285.844 128.179 283.369 128.955 281.994 128.993C279.527 129.06 279.495 129.17 279.598 137.313C279.71 146.197 281.955 154.043 284.686 155.095C285.563 155.434 286.514 155.476 286.799 155.189C287.084 154.902 286.713 150.765 285.974 145.995C284.383 135.72 285.369 132.749 290.905 131.155C293.979 130.269 294.516 130.455 297.03 133.281C299.928 136.539 301.994 143.784 301.994 150.69C301.994 153.914 302.349 154.658 303.887 154.658C309.661 154.658 307.148 135.531 300.497 128.851C296.715 125.053 292.452 124.535 287.494 127.27ZM325.793 126.739C328.068 129.024 327.162 132.49 323.743 134.584C319.741 137.034 312.994 137.311 312.994 135.025C312.994 132.68 315.764 127.777 317.743 126.619C320.14 125.217 324.34 125.28 325.793 126.739ZM34.4493 128.956C32.7723 129.689 30.1854 131.74 28.6994 133.512C24.9015 138.046 24.8405 146.092 28.5724 150.545C33.5543 156.492 43.3871 156.9 49.604 151.418C56.3719 145.45 56.2878 136.677 49.403 130.606C45.5011 127.165 39.9452 126.552 34.4493 128.956ZM256.445 128.956C254.768 129.689 252.133 131.797 250.59 133.639C248.07 136.647 247.826 137.579 248.202 142.796C248.699 149.697 251.296 153.117 257.264 154.731C266.896 157.336 277.003 150.243 276.99 140.89C276.986 137.668 273.802 131.858 270.65 129.322C268.052 127.23 260.815 127.044 256.445 128.956ZM136.342 131.102C135.564 133.139 142.555 148.705 146.11 152.851L148.951 156.165L150.843 153.753C151.883 152.427 153.767 148.359 155.029 144.715C156.292 141.069 157.926 137.196 158.661 136.106C160.552 133.302 160.335 132.564 157.619 132.564C155.626 132.564 154.694 133.783 151.869 140.09C148.507 147.593 148.492 147.609 146.769 145.363C145.819 144.123 145.031 142.742 145.019 142.294C145.007 141.846 143.86 139.065 142.47 136.114C139.839 130.53 137.341 128.486 136.342 131.102ZM46.101 134.856C50.501 137.825 50.9679 141.296 47.519 145.413C40.7981 153.434 29.3964 150.519 30.1834 140.98C30.4354 137.918 31.1824 136.688 33.8973 134.856C38.2022 131.953 41.7961 131.953 46.101 134.856ZM268.096 134.856C272.658 137.933 273.126 141.813 269.408 145.711C262.138 153.332 251.403 150.384 252.179 140.98C252.431 137.918 253.178 136.688 255.893 134.856C260.198 131.953 263.792 131.953 268.096 134.856Z" fill="#FF00FF"/>
<path d="M314.894 10.7286C313.83 5.85791 313.219 1.4522 313.536 0.937011C313.853 0.421818 314.719 0 315.461 0C316.901 0 320.993 10.8783 320.993 14.7097C320.993 16.8277 321.31 16.9401 325.781 16.4088C329.947 15.9127 330.974 16.1819 333.691 18.4787C335.45 19.964 337.509 23.1636 338.404 25.8018C340.366 31.5854 340.506 43.0995 338.645 45.6564C336.098 49.1543 334.993 46.4477 334.993 36.7083C334.993 29.2596 334.634 26.9035 333.243 25.2214C330.988 22.4938 326.072 21.5377 323.634 23.3535C321.898 24.646 321.855 25.3499 322.975 34.0037C324.3 44.2463 323.998 46.1966 321.086 46.1966C318.88 46.1966 318.521 44.4602 317.444 28.6218C317.106 23.6507 315.958 15.5984 314.894 10.7286Z" fill="#FF00FF"/>
<path d="M3.7919 18.9808C6.41785 13.5678 12.2478 7.34329 16.4997 5.41107C18.1496 4.66088 20.8496 4.15371 22.4995 4.28326C24.9765 4.47809 25.5555 5.01232 25.8224 7.34625C26.1584 10.2888 23.7295 15.0641 21.8965 15.0641C21.2436 15.0641 21.0916 13.9153 21.4995 12.0513C22.3785 8.03423 20.6126 8.09647 14.4197 12.3024C5.58889 18.2999 2.83794 28.1046 7.46484 37.0898C9.5558 41.1511 12.3947 41.6845 22.2305 39.8637C30.8864 38.2619 31.9993 38.3633 31.9993 40.7535C31.9993 42.5943 29.4274 43.6669 20.2476 45.6553C13.9557 47.0181 12.5507 47.0393 9.64078 45.8181C2.33693 42.753 -0.788006 28.418 3.7919 18.9808Z" fill="#FF00FF"/>
<path d="M300.769 13.5577C300.921 10.2436 301.244 6.96767 301.488 6.27673C301.732 5.5868 302.283 5.0284 302.713 5.03644C304.893 5.07962 305.904 7.11334 306.536 12.7272C307.219 18.785 307.298 18.9145 310.666 19.5492C316.742 20.6941 316.017 25.0566 309.744 25.0918L306.994 25.1069V36.1539C306.994 45.1863 306.727 47.2009 305.529 47.2009C303.049 47.2009 301.743 43.1869 301.219 33.9556C300.786 26.3311 300.47 25.1069 298.937 25.1069C293.294 25.1069 291.773 20.428 297.244 19.8977C300.479 19.5844 300.495 19.5563 300.769 13.5577Z" fill="#FF00FF"/>
<path d="M176.496 19.9118C179.467 19.5864 179.499 19.5171 179.792 12.8045C180.05 6.87326 180.329 6.02563 182.023 6.02563C184.15 6.02563 184.814 7.89464 185.232 15.0641C185.492 19.5071 185.56 19.5883 189.246 19.8947C192.102 20.1327 192.996 20.6448 192.996 22.0468C192.996 24.0845 191.112 25.1069 187.361 25.1069H184.889L185.192 35.8015C185.407 43.3656 185.15 46.6164 184.314 46.9097C182.204 47.6478 180.734 42.994 180.221 33.9556C179.752 25.7004 179.573 25.1069 177.548 25.1069C176.355 25.1069 174.505 24.4592 173.437 23.6678C171.044 21.8932 172.281 20.3728 176.496 19.9118Z" fill="#FF00FF"/>
<path d="M224.495 19.5834L224.791 12.8045C225.044 6.98875 225.349 6.02563 226.934 6.02563C229.264 6.02563 229.995 7.93784 229.995 14.0348C229.995 19.1325 230.858 20.0855 235.47 20.0855C236.741 20.0855 238.037 20.7564 238.351 21.5768C239.03 23.3534 236.181 25.1069 232.614 25.1069H230.102L230.299 35.8024C230.436 43.2843 230.14 46.6214 229.313 46.9106C227.24 47.6337 225.873 43.3114 225.283 34.1664L224.71 25.2766L221.352 24.6439C216.682 23.7642 216.604 20.3476 221.245 19.8977L224.495 19.5834Z" fill="#FF00FF"/>
<path d="M164.56 12.0513C162.762 12.0513 160.676 9.36892 161.47 8.07843C162.39 6.58407 164.548 6.78285 165.961 8.49213C167.317 10.1341 166.563 12.0513 164.56 12.0513Z" fill="#FF00FF"/>
<path d="M171.078 45.0388C167.944 50.9218 164.997 41.9355 164.997 26.4897C164.997 17.9233 165.18 16.9602 166.747 17.2585C167.949 17.4865 168.581 18.6905 168.765 21.0978C168.913 23.027 169.743 28.7323 170.611 33.7778C171.802 40.6962 171.917 43.4641 171.078 45.0388Z" fill="#FF00FF"/>
<path d="M86.9032 25.2053L92.0631 21.6411C94.9011 19.6808 98.094 18.077 99.1599 18.077C103.138 18.077 107.154 21.1902 109.293 25.9314C111.845 31.5915 112.304 42.8955 110.09 45.58C107.801 48.3548 106.497 45.7949 106.825 39.1637C107.224 31.0773 104.297 24.1026 100.505 24.1026C96.812 24.1026 92.6661 26.4968 91.0251 29.5759C89.8962 31.6949 89.8542 32.8518 90.8102 35.5081C92.2741 39.5744 92.3201 41.8611 90.9541 42.7087C89.0972 43.8616 87.0802 41.0999 85.4083 35.1135C82.7723 25.6803 77.7584 22.3843 73.4035 27.2239C71.8065 28.9984 71.5455 30.6224 71.7875 37.2667C72.0565 44.6451 71.9365 45.1923 70.0566 45.1923C67.6266 45.1923 67.3216 43.9641 66.4946 30.8604L65.8747 21.0486L68.6866 21.0546C70.2336 21.0576 73.5555 20.8026 76.0695 20.4863C80.0124 19.9912 81.0694 20.2753 83.7713 22.559L86.9032 25.2053Z" fill="#FF00FF"/>
<path d="M137.64 23.4539C139.074 22.4295 141.429 20.8036 142.872 19.8395C146.924 17.135 150.749 17.5979 154.1 21.2002C159.373 26.8693 161.668 41.2516 158.007 45.6825C155.878 48.2595 154.997 46.3231 154.997 39.0673C154.997 26.1824 149.663 20.6298 142.626 26.1895C138.466 29.4754 137.819 31.4378 139.194 36.6018C140.117 40.0706 140.13 41.4434 139.245 42.3322C137.381 44.2041 135.533 41.9024 133.509 35.1898C130.694 25.8541 126.31 22.6936 121.827 26.769C120.333 28.1258 119.998 29.9676 119.998 36.8117C119.998 44.4251 119.821 45.1923 118.065 45.1923C115.564 45.1923 115.211 43.7171 114.822 31.6346L114.498 21.5919L116.998 21.3057C118.373 21.1491 121.555 20.7704 124.068 20.4661C128.015 19.9871 129.074 20.2804 131.835 22.6133C135.004 25.2907 135.055 25.2987 137.64 23.4539Z" fill="#FF00FF"/>
<path d="M5.99988 128.604C5.99988 119.384 9.8558 111.06 14.9997 109.171C19.0286 107.691 22.5275 108.868 27.2495 113.291C30.2084 116.063 30.9204 119.509 28.5344 119.509C27.7284 119.509 25.5315 118.153 23.6525 116.496C19.7416 113.048 18.9896 112.918 14.9887 114.995C11.2868 116.918 9.61181 122.257 10.7368 128.547L11.5457 133.066L16.4977 133.382C19.2206 133.555 22.0286 134.18 22.7365 134.771C24.8545 136.536 22.2415 138.59 17.8776 138.59C13.1727 138.59 13.0137 139.641 16.8067 145.674C20.4666 151.495 20.9986 153.038 19.9356 154.75C18.4146 157.198 15.7657 154.551 11.4998 146.316C7.59484 138.78 7.41083 138.595 3.74991 138.593C0.651972 138.59 0 138.236 0 136.556C0 135.1 0.851983 134.352 2.99994 133.92C5.82188 133.353 5.99988 133.037 5.99988 128.604Z" fill="#FF00FF"/>
<path d="M58.6058 127.528C59.6468 127.52 62.2987 126.865 64.4987 126.073C66.6986 125.282 69.1736 124.795 69.9986 124.991C70.8235 125.187 72.7065 125.617 74.1815 125.945C76.6974 126.505 78.9104 129.974 77.5954 131.295C77.2744 131.618 74.5545 131.33 71.5525 130.656C61.6967 128.441 59.8468 132.113 64.0447 145.563C66.1576 152.335 66.0446 154.658 63.6017 154.658C61.3467 154.658 57.8728 144.069 57.2588 135.326C56.7568 128.169 56.8658 127.542 58.6058 127.528Z" fill="#FF00FF"/>
<path d="M194.162 130.49C194.432 128.637 195.647 127.866 200.496 126.47C206.842 124.643 209.996 124.831 213.872 127.266C215.718 128.427 216.418 128.483 217.01 127.52C218.365 125.318 219.715 127.373 220.42 132.71C221.195 138.576 223.279 144.164 225.688 146.838C227.879 149.269 233.49 149.13 237.091 146.556C239.945 144.514 239.995 144.315 239.995 135.007C239.995 129.209 240.393 125.534 241.02 125.534C245.164 125.534 247.729 161.612 244.476 174.154C241.478 185.711 237.009 188.585 228.051 184.715C222.249 182.208 217.996 177.745 217.996 174.164C217.996 170.738 219.631 171.128 224.106 175.623C229.513 181.053 233.245 182.498 236.439 180.396C237.79 179.507 239.376 177.081 239.962 175.004C241.315 170.214 242.494 153.395 241.634 151.145C241.038 149.586 240.69 149.619 237.433 151.549C231.697 154.948 227.372 154.379 222.878 149.635C219.366 145.927 215.996 138.068 215.996 133.587C215.996 132.405 214.333 131.617 209.908 130.699C204.62 129.603 203.503 129.645 201.408 131.024C198.444 132.974 198.413 134.706 201.165 144.791C203.105 151.9 203.174 152.902 201.816 154.265C200.458 155.629 200.077 155.277 198.215 150.929C195.919 145.568 193.64 134.077 194.162 130.49Z" fill="#FF00FF"/>
<path d="M281.994 128.993C283.369 128.955 285.844 128.179 287.494 127.27C292.452 124.535 296.715 125.053 300.497 128.851C307.148 135.531 309.661 154.658 303.887 154.658C302.349 154.658 301.994 153.914 301.994 150.69C301.994 143.784 299.928 136.539 297.03 133.281C294.516 130.455 293.979 130.269 290.905 131.155C285.369 132.749 284.383 135.72 285.974 145.995C286.713 150.765 287.084 154.902 286.799 155.189C286.514 155.476 285.563 155.434 284.686 155.095C281.955 154.043 279.71 146.197 279.598 137.313C279.495 129.17 279.527 129.06 281.994 128.993Z" fill="#FF00FF"/>
<path d="M146.11 152.851C142.555 148.705 135.564 133.139 136.342 131.102C137.341 128.486 139.839 130.53 142.47 136.114C143.86 139.065 145.007 141.846 145.019 142.294C145.031 142.742 145.819 144.123 146.769 145.363C148.492 147.609 148.507 147.593 151.869 140.09C154.694 133.783 155.626 132.564 157.619 132.564C160.335 132.564 160.552 133.302 158.661 136.106C157.926 137.196 156.292 141.069 155.029 144.715C153.767 148.359 151.883 152.427 150.843 153.753L148.951 156.165L146.11 152.851Z" fill="#FF00FF"/>
</svg>
